<svg xmlns="http://www.w3.org/2000/svg" viewBox="0 0 48 48">
	<g fill="none" stroke="#ffb21a" stroke-linecap="round" stroke-width="2.7">
		<path d="M19 5v4M19 23v4M7 16h4M27 16h4M10.5 7.5l2.8 2.8M24.7 21.7l2.8 2.8M27.5 7.5l-2.8 2.8M13.3 21.7l-2.8 2.8"/>
	</g>
	<circle cx="19" cy="16" r="7.8" fill="#ffc928"/>
	<path fill="#a9d4ff" d="M17 36.5h19a7.5 7.5 0 0 0 .8-14.9 10.7 10.7 0 0 0-20.3-3.4A9.2 9.2 0 0 0 17 36.5Z"/>
	<path fill="#2389ee" d="M11.2 39h23.1a7.4 7.4 0 0 0 .7-14.7 10.2 10.2 0 0 0-19.1-3.1A8.8 8.8 0 0 0 11.2 39Z"/>
</svg>
